<svg width="60" height="60" viewBox="0 0 60 60" fill="none" xmlns="http://www.w3.org/2000/svg">
<circle cx="30" cy="30" r="30" fill="#F95555"/>
<path d="M37.9264 16.8785H25.9264C25.2634 16.8785 24.6275 17.1419 24.1586 17.6108C23.6898 18.0796 23.4264 18.7155 23.4264 19.3785V21.8785H21.9264C21.2634 21.8785 20.6275 22.1419 20.1586 22.6108C19.6898 23.0796 19.4264 23.7155 19.4264 24.3785V42.3785C19.4264 42.6587 19.5048 42.9333 19.6528 43.1712C19.8009 43.4091 20.0126 43.6007 20.2639 43.7245C20.5153 43.8482 20.7963 43.8991 21.0751 43.8713C21.3539 43.8435 21.6194 43.7382 21.8414 43.5673L27.4264 39.271L33.0126 43.5673C33.2347 43.7378 33.5 43.8428 33.7786 43.8704C34.0572 43.898 34.338 43.8471 34.5891 43.7234C34.8403 43.5997 35.0518 43.4082 35.1998 43.1705C35.3477 42.9328 35.4262 42.6585 35.4264 42.3785V36.5785L38.0114 38.5673C38.2334 38.7382 38.4989 38.8435 38.7777 38.8713C39.0565 38.8991 39.3375 38.8482 39.5888 38.7245C39.8402 38.6007 40.0519 38.4091 40.1999 38.1712C40.348 37.9333 40.4264 37.6587 40.4264 37.3785V19.3785C40.4264 18.7155 40.163 18.0796 39.6942 17.6108C39.2253 17.1419 38.5894 16.8785 37.9264 16.8785ZM32.4264 39.3323L28.3401 36.1898C28.078 35.9882 27.7565 35.8789 27.4258 35.8789C27.095 35.8789 26.7736 35.9882 26.5114 36.1898L22.4264 39.3323V24.8785H32.4264V39.3323ZM37.4264 34.3323L35.4264 32.7948V24.3785C35.4264 23.7155 35.163 23.0796 34.6942 22.6108C34.2253 22.1419 33.5894 21.8785 32.9264 21.8785H26.4264V19.8785H37.4264V34.3323Z" fill="white"/>
</svg>
