<svg width="60" height="60" viewBox="0 0 60 60" fill="none" xmlns="http://www.w3.org/2000/svg">
<circle cx="30" cy="30" r="30" fill="#F95555"/>
<g clip-path="url(#clip0_940_82)">
<path d="M45.1722 29.1072C45.1706 27.7423 44.7975 26.4036 44.0928 25.2347C43.3881 24.0658 42.3785 23.1108 41.1722 22.4722C41.1441 21.1474 40.7118 19.8628 39.9331 18.7905C39.1545 17.7183 38.0667 16.9097 36.8156 16.473C35.5645 16.0364 34.2098 15.9925 32.9331 16.3474C31.6563 16.7022 30.5186 17.4388 29.6722 18.4584C28.8259 17.4388 27.6881 16.7022 26.4114 16.3474C25.1346 15.9925 23.7799 16.0364 22.5288 16.473C21.2777 16.9097 20.1899 17.7183 19.4113 18.7905C18.6326 19.8628 18.2003 21.1474 18.1722 22.4722C16.9647 23.1091 15.954 24.0635 15.2489 25.2325C14.5439 26.4015 14.1713 27.7408 14.1713 29.1059C14.1713 30.4711 14.5439 31.8104 15.2489 32.9794C15.954 34.1484 16.9647 35.1028 18.1722 35.7397C18.1998 37.0647 18.6318 38.3497 19.4103 39.4223C20.1887 40.4949 21.2765 41.3039 22.5277 41.7409C23.7789 42.1778 25.1338 42.2219 26.4108 41.8671C27.6877 41.5123 28.8257 40.7757 29.6722 39.7559C30.5187 40.7757 31.6567 41.5123 32.9337 41.8671C34.2106 42.2219 35.5655 42.1778 36.8167 41.7409C38.068 41.3039 39.1557 40.4949 39.9342 39.4223C40.7126 38.3497 41.1446 37.0647 41.1722 35.7397C42.3789 35.1022 43.3889 34.1478 44.0937 32.9792C44.7985 31.8106 45.1714 30.4719 45.1722 29.1072ZM24.6722 39.1072C23.917 39.1071 23.1821 38.8627 22.5772 38.4106C21.9723 37.9584 21.5299 37.3227 21.316 36.5984C21.441 36.5984 21.5522 36.6072 21.6722 36.6072H22.6722C23.07 36.6072 23.4516 36.4491 23.7329 36.1678C24.0142 35.8865 24.1722 35.505 24.1722 35.1072C24.1722 34.7094 24.0142 34.3278 23.7329 34.0465C23.4516 33.7652 23.07 33.6072 22.6722 33.6072H21.6722C20.6101 33.6079 19.582 33.233 18.7697 32.5487C17.9575 31.8644 17.4134 30.9148 17.2339 29.868C17.0543 28.8213 17.2507 27.7447 17.7885 26.8288C18.3262 25.9129 19.1706 25.2167 20.1722 24.8634C20.4648 24.76 20.7181 24.5684 20.8972 24.3149C21.0763 24.0615 21.1724 23.7588 21.1722 23.4484V22.6072C21.1722 21.6789 21.541 20.7887 22.1973 20.1323C22.8537 19.4759 23.744 19.1072 24.6722 19.1072C25.6005 19.1072 26.4907 19.4759 27.1471 20.1323C27.8035 20.7887 28.1722 21.6789 28.1722 22.6072V30.1297C27.8854 29.9458 27.5845 29.7848 27.2722 29.6484C26.9075 29.4893 26.4946 29.4816 26.1242 29.6269C25.7538 29.7722 25.4563 30.0588 25.2972 30.4234C25.1381 30.7881 25.1303 31.2011 25.2757 31.5714C25.421 31.9418 25.7075 32.2393 26.0722 32.3984C26.8097 32.7197 27.4141 33.2853 27.7835 33.9999C28.153 34.7146 28.2649 35.5347 28.1006 36.3222C27.9362 37.1097 27.5056 37.8165 26.8812 38.3238C26.2568 38.831 25.4767 39.1077 24.6722 39.1072ZM37.6722 33.6072H36.6722C36.2744 33.6072 35.8929 33.7652 35.6116 34.0465C35.3302 34.3278 35.1722 34.7094 35.1722 35.1072C35.1722 35.505 35.3302 35.8865 35.6116 36.1678C35.8929 36.4491 36.2744 36.6072 36.6722 36.6072H37.6722C37.7972 36.6072 37.9097 36.6072 38.0285 36.5984C37.8619 37.1631 37.5555 37.6767 37.1377 38.0916C36.7199 38.5064 36.2042 38.8092 35.6383 38.9718C35.0724 39.1345 34.4747 39.1517 33.9004 39.022C33.3261 38.8923 32.7937 38.6198 32.3527 38.2297C31.9117 37.8396 31.5762 37.3446 31.3773 36.7904C31.1784 36.2362 31.1225 35.6409 31.2148 35.0594C31.3071 34.4778 31.5446 33.929 31.9053 33.4637C32.266 32.9983 32.7383 32.6315 33.2785 32.3972C33.6431 32.2381 33.9297 31.9406 34.075 31.5702C34.2203 31.1998 34.2126 30.7869 34.0535 30.4222C33.8943 30.0575 33.5969 29.771 33.2265 29.6256C32.8561 29.4803 32.4431 29.4881 32.0785 29.6472C31.7662 29.7836 31.4653 29.9445 31.1785 30.1284V22.6072C31.1785 21.6789 31.5472 20.7887 32.2036 20.1323C32.86 19.4759 33.7502 19.1072 34.6785 19.1072C35.6067 19.1072 36.497 19.4759 37.1533 20.1323C37.8097 20.7887 38.1785 21.6789 38.1785 22.6072V23.4484C38.1783 23.7588 38.2744 24.0615 38.4535 24.3149C38.6326 24.5684 38.8859 24.76 39.1785 24.8634C40.1846 25.2135 41.0338 25.9092 41.5752 26.8266C42.1166 27.7441 42.3149 28.8239 42.1349 29.8738C41.9549 30.9238 41.4083 31.8758 40.5922 32.5606C39.7762 33.2454 38.7437 33.6184 37.6785 33.6134L37.6722 33.6072ZM39.6722 28.1072C39.6722 28.505 39.5142 28.8865 39.2329 29.1678C38.9516 29.4491 38.57 29.6072 38.1722 29.6072C36.8461 29.6072 35.5744 29.0804 34.6367 28.1427C33.699 27.205 33.1722 25.9333 33.1722 24.6072V24.1072C33.1722 23.7094 33.3302 23.3278 33.6116 23.0465C33.8929 22.7652 34.2744 22.6072 34.6722 22.6072C35.07 22.6072 35.4516 22.7652 35.7329 23.0465C36.0142 23.3278 36.1722 23.7094 36.1722 24.1072V24.6072C36.1722 25.1376 36.3829 25.6463 36.758 26.0214C37.1331 26.3965 37.6418 26.6072 38.1722 26.6072C38.57 26.6072 38.9516 26.7652 39.2329 27.0465C39.5142 27.3278 39.6722 27.7094 39.6722 28.1072ZM26.1722 24.6072C26.1722 25.9333 25.6454 27.205 24.7077 28.1427C23.7701 29.0804 22.4983 29.6072 21.1722 29.6072C20.7744 29.6072 20.3929 29.4491 20.1116 29.1678C19.8302 28.8865 19.6722 28.505 19.6722 28.1072C19.6722 27.7094 19.8302 27.3278 20.1116 27.0465C20.3929 26.7652 20.7744 26.6072 21.1722 26.6072C21.7026 26.6072 22.2114 26.3965 22.5864 26.0214C22.9615 25.6463 23.1722 25.1376 23.1722 24.6072V24.1072C23.1722 23.7094 23.3302 23.3278 23.6116 23.0465C23.8929 22.7652 24.2744 22.6072 24.6722 22.6072C25.07 22.6072 25.4516 22.7652 25.7329 23.0465C26.0142 23.3278 26.1722 23.7094 26.1722 24.1072V24.6072Z" fill="white"/>
</g>
<defs>
<clipPath id="clip0_940_82">
<rect width="32" height="32" fill="white" transform="translate(13.6722 13.6072)"/>
</clipPath>
</defs>
</svg>
