<svg width="60" height="60" viewBox="0 0 60 60" fill="none" xmlns="http://www.w3.org/2000/svg">
<circle cx="30" cy="30" r="30" fill="#F95555"/>
<path d="M27.335 24.8551C27.335 24.4595 27.4523 24.0729 27.672 23.744C27.8918 23.4151 28.2041 23.1587 28.5696 23.0073C28.9351 22.856 29.3372 22.8164 29.7251 22.8935C30.1131 22.9707 30.4695 23.1612 30.7492 23.4409C31.0289 23.7206 31.2194 24.077 31.2965 24.4649C31.3737 24.8529 31.3341 25.255 31.1827 25.6205C31.0314 25.9859 30.775 26.2983 30.4461 26.518C30.1172 26.7378 29.7305 26.8551 29.335 26.8551C28.8045 26.8551 28.2958 26.6444 27.9208 26.2693C27.5457 25.8942 27.335 25.3855 27.335 24.8551ZM43.335 30.3551C43.335 33.0252 42.5432 35.6352 41.0598 37.8553C39.5764 40.0754 37.468 41.8057 35.0012 42.8275C32.5344 43.8493 29.82 44.1166 27.2012 43.5957C24.5825 43.0748 22.177 41.7891 20.289 39.901C18.401 38.013 17.1153 35.6076 16.5944 32.9888C16.0735 30.3701 16.3408 27.6557 17.3626 25.1889C18.3844 22.7221 20.1147 20.6137 22.3348 19.1303C24.5548 17.6469 27.1649 16.8551 29.835 16.8551C33.4142 16.8591 36.8456 18.2827 39.3765 20.8135C41.9074 23.3444 43.331 26.7759 43.335 30.3551ZM40.335 30.3551C40.335 28.2784 39.7192 26.2483 38.5654 24.5216C37.4116 22.7949 35.7718 21.4491 33.8531 20.6544C31.9345 19.8596 29.8233 19.6517 27.7865 20.0569C25.7497 20.462 23.8788 21.462 22.4103 22.9305C20.9419 24.3989 19.9419 26.2699 19.5367 28.3067C19.1316 30.3435 19.3395 32.4547 20.1342 34.3733C20.929 36.2919 22.2748 37.9318 24.0015 39.0855C25.7282 40.2393 27.7583 40.8551 29.835 40.8551C32.6188 40.8521 35.2878 39.7449 37.2563 37.7764C39.2248 35.8079 40.332 33.139 40.335 30.3551ZM31.335 34.9401V30.8551C31.335 30.1921 31.0716 29.5562 30.6027 29.0873C30.1339 28.6185 29.498 28.3551 28.835 28.3551C28.4807 28.3546 28.1377 28.4794 27.8667 28.7076C27.5957 28.9357 27.4142 29.2524 27.3543 29.6015C27.2944 29.9507 27.36 30.3097 27.5395 30.6151C27.719 30.9205 28.0008 31.1526 28.335 31.2701V35.3551C28.335 36.0181 28.5984 36.654 29.0672 37.1229C29.536 37.5917 30.1719 37.8551 30.835 37.8551C31.1892 37.8556 31.5322 37.7308 31.8032 37.5026C32.0742 37.2745 32.2557 36.9578 32.3156 36.6087C32.3755 36.2595 32.3099 35.9005 32.1304 35.5951C31.9509 35.2897 31.6691 35.0577 31.335 34.9401Z" fill="white"/>
</svg>
