<svg width="60" height="60" viewBox="0 0 60 60" fill="none" xmlns="http://www.w3.org/2000/svg">
<circle cx="30" cy="30" r="30" fill="#F95555"/>
<path d="M43.3879 35.2915C43.5862 35.6353 43.6403 36.0437 43.5381 36.4272C43.4359 36.8108 43.1859 37.1382 42.8429 37.3378L30.8429 44.3378C30.6134 44.4718 30.3524 44.5424 30.0866 44.5424C29.8209 44.5424 29.5599 44.4718 29.3304 44.3378L17.3304 37.3378C16.9866 37.1374 16.7365 36.8086 16.6351 36.4238C16.5337 36.039 16.5893 35.6297 16.7897 35.2859C16.9901 34.9421 17.3189 34.692 17.7037 34.5906C18.0885 34.4893 18.4978 34.5449 18.8416 34.7453L30.0916 41.3053L41.3429 34.7453C41.6867 34.5474 42.0949 34.4938 42.4781 34.5962C42.8614 34.6985 43.1885 34.9486 43.3879 35.2915ZM41.3429 28.7453L30.0929 35.3053L18.8491 28.7453C18.5063 28.5612 18.1054 28.5176 17.731 28.6236C17.3566 28.7295 17.038 28.9769 16.8426 29.3133C16.6471 29.6497 16.59 30.049 16.6834 30.4267C16.7767 30.8044 17.0132 31.1311 17.3429 31.3378L29.3429 38.3378C29.5724 38.4718 29.8334 38.5424 30.0991 38.5424C30.3649 38.5424 30.6259 38.4718 30.8554 38.3378L42.8554 31.3378C43.1991 31.1372 43.4492 30.8083 43.5504 30.4234C43.6517 30.0385 43.5959 29.6291 43.3954 29.2853C43.1948 28.9415 42.8659 28.6915 42.4809 28.5902C42.096 28.4889 41.6866 28.5447 41.3429 28.7453ZM16.5929 24.0415C16.5933 23.7787 16.6629 23.5206 16.7945 23.2931C16.9261 23.0656 17.1152 22.8767 17.3429 22.7453L29.3429 15.7453C29.5726 15.612 29.8335 15.5419 30.0991 15.5419C30.3647 15.5419 30.6256 15.612 30.8554 15.7453L42.8554 22.7453C43.0821 22.8773 43.2702 23.0665 43.401 23.2939C43.5317 23.5214 43.6006 23.7792 43.6006 24.0415C43.6006 24.3039 43.5317 24.5617 43.401 24.7891C43.2702 25.0166 43.0821 25.2058 42.8554 25.3378L30.8554 32.3378C30.6259 32.4718 30.3649 32.5424 30.0991 32.5424C29.8334 32.5424 29.5724 32.4718 29.3429 32.3378L17.3429 25.3378C17.1152 25.2064 16.9261 25.0175 16.7945 24.79C16.6629 24.5625 16.5933 24.3044 16.5929 24.0415ZM21.0704 24.0415L30.0929 29.3053L39.1154 24.0415L30.0929 18.7778L21.0704 24.0415Z" fill="white"/>
</svg>
